<svg viewBox="-8 -8 40 40" width="100%" height="100%" fill="#000" xmlns="http://www.w3.org/2000/svg"><path d="M14.7071 5.29289C14.3166 4.90237 13.6834 4.90237 13.2929 5.29289C12.9024 5.68342 12.9024 6.31658 13.2929 6.70711L17.5858 11H3C2.44772 11 2 11.4477 2 12C2 12.5523 2.44772 13 3 13H17.5858L13.2929 17.2929C12.9024 17.6834 12.9024 18.3166 13.2929 18.7071C13.6834 19.0976 14.3166 19.0976 14.7071 18.7071L20.7071 12.7071L21.4142 12L20.7074 11.2932C20.7072 11.2929 20.707 11.2927 20.7067 11.2925M14.7071 5.29289L20.7067 11.2925L14.7071 5.29289Z"></path></svg>
